<?xml version="1.0" encoding="UTF-8"?>
<svg viewBox="0 0 80 80" xmlns="http://www.w3.org/2000/svg" shape-rendering="crispEdges">
  <defs>
    <!-- Warm glow for the flame canopy -->
    <filter id="fireGlow" x="-40%" y="-40%" width="180%" height="180%">
      <feGaussianBlur in="SourceGraphic" stdDeviation="2.2" result="blur"/>
      <feColorMatrix in="blur" type="matrix"
        values="1 0.4 0 0 0
                0 0.3 0 0 0
                0 0   0 0 0
                0 0   0 0.6 0"
        result="coloredBlur"/>
      <feMerge>
        <feMergeNode in="coloredBlur"/>
        <feMergeNode in="SourceGraphic"/>
      </feMerge>
    </filter>

    <!-- Deep shadow for trunk -->
    <filter id="trunkShade" x="-20%" y="-20%" width="140%" height="140%">
      <feDropShadow dx="1" dy="1" stdDeviation="0.5" flood-color="#1a0a00" flood-opacity="0.4"/>
    </filter>
  </defs>

  <!-- ── Flame canopy (rows 0–11) with warm glow ── -->
  <g filter="url(#fireGlow)">

    <!-- Row 0  y=0  — spark tips -->
    <rect x="35" y="0"  width="5" height="5" fill="#fffde7"/>
    <rect x="40" y="0"  width="5" height="5" fill="#fffde7"/>

    <!-- Row 1  y=5  — bright yellow -->
    <rect x="30" y="5"  width="5" height="5" fill="#fff59d"/>
    <rect x="35" y="5"  width="5" height="5" fill="#fff59d"/>
    <rect x="40" y="5"  width="5" height="5" fill="#fff59d"/>
    <rect x="45" y="5"  width="5" height="5" fill="#fff59d"/>

    <!-- Row 2  y=10 — gold rim -->
    <rect x="25" y="10" width="5" height="5" fill="#fff59d"/>
    <rect x="30" y="10" width="5" height="5" fill="#ffd740"/>
    <rect x="35" y="10" width="5" height="5" fill="#ffd740"/>
    <rect x="40" y="10" width="5" height="5" fill="#ffd740"/>
    <rect x="45" y="10" width="5" height="5" fill="#ffd740"/>
    <rect x="50" y="10" width="5" height="5" fill="#fff59d"/>

    <!-- Row 3  y=15 — gold / amber -->
    <rect x="20" y="15" width="5" height="5" fill="#fff59d"/>
    <rect x="25" y="15" width="5" height="5" fill="#ffd740"/>
    <rect x="30" y="15" width="5" height="5" fill="#ffd740"/>
    <rect x="35" y="15" width="5" height="5" fill="#ffa726"/>
    <rect x="40" y="15" width="5" height="5" fill="#ffa726"/>
    <rect x="45" y="15" width="5" height="5" fill="#ffd740"/>
    <rect x="50" y="15" width="5" height="5" fill="#ffd740"/>
    <rect x="55" y="15" width="5" height="5" fill="#fff59d"/>

    <!-- Row 4  y=20 — gold / amber spreading -->
    <rect x="15" y="20" width="5" height="5" fill="#fff59d"/>
    <rect x="20" y="20" width="5" height="5" fill="#ffd740"/>
    <rect x="25" y="20" width="5" height="5" fill="#ffd740"/>
    <rect x="30" y="20" width="5" height="5" fill="#ffa726"/>
    <rect x="35" y="20" width="5" height="5" fill="#ffa726"/>
    <rect x="40" y="20" width="5" height="5" fill="#ffa726"/>
    <rect x="45" y="20" width="5" height="5" fill="#ffa726"/>
    <rect x="50" y="20" width="5" height="5" fill="#ffd740"/>
    <rect x="55" y="20" width="5" height="5" fill="#ffd740"/>
    <rect x="60" y="20" width="5" height="5" fill="#fff59d"/>

    <!-- Row 5  y=25 — amber / deep orange -->
    <rect x="10" y="25" width="5" height="5" fill="#fff59d"/>
    <rect x="15" y="25" width="5" height="5" fill="#ffd740"/>
    <rect x="20" y="25" width="5" height="5" fill="#ffa726"/>
    <rect x="25" y="25" width="5" height="5" fill="#ffa726"/>
    <rect x="30" y="25" width="5" height="5" fill="#ef6c00"/>
    <rect x="35" y="25" width="5" height="5" fill="#ef6c00"/>
    <rect x="40" y="25" width="5" height="5" fill="#ef6c00"/>
    <rect x="45" y="25" width="5" height="5" fill="#ef6c00"/>
    <rect x="50" y="25" width="5" height="5" fill="#ffa726"/>
    <rect x="55" y="25" width="5" height="5" fill="#ffa726"/>
    <rect x="60" y="25" width="5" height="5" fill="#ffd740"/>
    <rect x="65" y="25" width="5" height="5" fill="#fff59d"/>

    <!-- Row 6  y=30 — orange / red-orange -->
    <rect x="10" y="30" width="5" height="5" fill="#ffd740"/>
    <rect x="15" y="30" width="5" height="5" fill="#ffa726"/>
    <rect x="20" y="30" width="5" height="5" fill="#ffa726"/>
    <rect x="25" y="30" width="5" height="5" fill="#ef6c00"/>
    <rect x="30" y="30" width="5" height="5" fill="#ef6c00"/>
    <rect x="35" y="30" width="5" height="5" fill="#e53935"/>
    <rect x="40" y="30" width="5" height="5" fill="#e53935"/>
    <rect x="45" y="30" width="5" height="5" fill="#ef6c00"/>
    <rect x="50" y="30" width="5" height="5" fill="#ef6c00"/>
    <rect x="55" y="30" width="5" height="5" fill="#ffa726"/>
    <rect x="60" y="30" width="5" height="5" fill="#ffa726"/>
    <rect x="65" y="30" width="5" height="5" fill="#ffd740"/>

    <!-- Row 7  y=35 — widest: orange / red / crimson core -->
    <rect x="5"  y="35" width="5" height="5" fill="#fff59d"/>
    <rect x="10" y="35" width="5" height="5" fill="#ffd740"/>
    <rect x="15" y="35" width="5" height="5" fill="#ffa726"/>
    <rect x="20" y="35" width="5" height="5" fill="#ef6c00"/>
    <rect x="25" y="35" width="5" height="5" fill="#ef6c00"/>
    <rect x="30" y="35" width="5" height="5" fill="#e53935"/>
    <rect x="35" y="35" width="5" height="5" fill="#e53935"/>
    <rect x="40" y="35" width="5" height="5" fill="#e53935"/>
    <rect x="45" y="35" width="5" height="5" fill="#e53935"/>
    <rect x="50" y="35" width="5" height="5" fill="#ef6c00"/>
    <rect x="55" y="35" width="5" height="5" fill="#ef6c00"/>
    <rect x="60" y="35" width="5" height="5" fill="#ffa726"/>
    <rect x="65" y="35" width="5" height="5" fill="#ffd740"/>
    <rect x="70" y="35" width="5" height="5" fill="#fff59d"/>

    <!-- Row 8  y=40 — deep crimson emerges -->
    <rect x="5"  y="40" width="5" height="5" fill="#ffd740"/>
    <rect x="10" y="40" width="5" height="5" fill="#ffa726"/>
    <rect x="15" y="40" width="5" height="5" fill="#ef6c00"/>
    <rect x="20" y="40" width="5" height="5" fill="#ef6c00"/>
    <rect x="25" y="40" width="5" height="5" fill="#e53935"/>
    <rect x="30" y="40" width="5" height="5" fill="#e53935"/>
    <rect x="35" y="40" width="5" height="5" fill="#b71c1c"/>
    <rect x="40" y="40" width="5" height="5" fill="#b71c1c"/>
    <rect x="45" y="40" width="5" height="5" fill="#e53935"/>
    <rect x="50" y="40" width="5" height="5" fill="#e53935"/>
    <rect x="55" y="40" width="5" height="5" fill="#ef6c00"/>
    <rect x="60" y="40" width="5" height="5" fill="#ef6c00"/>
    <rect x="65" y="40" width="5" height="5" fill="#ffa726"/>
    <rect x="70" y="40" width="5" height="5" fill="#ffd740"/>

    <!-- Row 9  y=45 — deep crimson core widens -->
    <rect x="5"  y="45" width="5" height="5" fill="#ffd740"/>
    <rect x="10" y="45" width="5" height="5" fill="#ffa726"/>
    <rect x="15" y="45" width="5" height="5" fill="#ef6c00"/>
    <rect x="20" y="45" width="5" height="5" fill="#e53935"/>
    <rect x="25" y="45" width="5" height="5" fill="#e53935"/>
    <rect x="30" y="45" width="5" height="5" fill="#b71c1c"/>
    <rect x="35" y="45" width="5" height="5" fill="#b71c1c"/>
    <rect x="40" y="45" width="5" height="5" fill="#b71c1c"/>
    <rect x="45" y="45" width="5" height="5" fill="#b71c1c"/>
    <rect x="50" y="45" width="5" height="5" fill="#e53935"/>
    <rect x="55" y="45" width="5" height="5" fill="#e53935"/>
    <rect x="60" y="45" width="5" height="5" fill="#ef6c00"/>
    <rect x="65" y="45" width="5" height="5" fill="#ffa726"/>
    <rect x="70" y="45" width="5" height="5" fill="#ffd740"/>

    <!-- Row 10 y=50 — flame base meets trunk shoulders -->
    <rect x="10" y="50" width="5" height="5" fill="#ffa726"/>
    <rect x="15" y="50" width="5" height="5" fill="#ef6c00"/>
    <rect x="20" y="50" width="5" height="5" fill="#e53935"/>
    <rect x="25" y="50" width="5" height="5" fill="#b71c1c"/>
    <rect x="30" y="50" width="5" height="5" fill="#b71c1c"/>
    <rect x="35" y="50" width="5" height="5" fill="#6d4c41"/>
    <rect x="40" y="50" width="5" height="5" fill="#6d4c41"/>
    <rect x="45" y="50" width="5" height="5" fill="#b71c1c"/>
    <rect x="50" y="50" width="5" height="5" fill="#b71c1c"/>
    <rect x="55" y="50" width="5" height="5" fill="#e53935"/>
    <rect x="60" y="50" width="5" height="5" fill="#ef6c00"/>
    <rect x="65" y="50" width="5" height="5" fill="#ffa726"/>

    <!-- Row 11 y=55 — flame narrows to trunk -->
    <rect x="15" y="55" width="5" height="5" fill="#ef6c00"/>
    <rect x="20" y="55" width="5" height="5" fill="#e53935"/>
    <rect x="25" y="55" width="5" height="5" fill="#b71c1c"/>
    <rect x="30" y="55" width="5" height="5" fill="#6d4c41"/>
    <rect x="35" y="55" width="5" height="5" fill="#8d5524"/>
    <rect x="40" y="55" width="5" height="5" fill="#8d5524"/>
    <rect x="45" y="55" width="5" height="5" fill="#6d4c41"/>
    <rect x="50" y="55" width="5" height="5" fill="#b71c1c"/>
    <rect x="55" y="55" width="5" height="5" fill="#e53935"/>
    <rect x="60" y="55" width="5" height="5" fill="#ef6c00"/>

  </g><!-- end flame group -->

  <!-- ── Trunk (rows 12–15) — no glow ── -->
  <g filter="url(#trunkShade)">

    <!-- Row 12 y=60 — upper trunk narrow -->
    <rect x="30" y="60" width="5" height="5" fill="#6d4c41"/>
    <rect x="35" y="60" width="5" height="5" fill="#8d5524"/>
    <rect x="40" y="60" width="5" height="5" fill="#8d5524"/>
    <rect x="45" y="60" width="5" height="5" fill="#6d4c41"/>

    <!-- Row 13 y=65 — trunk widens slightly -->
    <rect x="25" y="65" width="5" height="5" fill="#6d4c41"/>
    <rect x="30" y="65" width="5" height="5" fill="#6d4c41"/>
    <rect x="35" y="65" width="5" height="5" fill="#8d5524"/>
    <rect x="40" y="65" width="5" height="5" fill="#8d5524"/>
    <rect x="45" y="65" width="5" height="5" fill="#6d4c41"/>
    <rect x="50" y="65" width="5" height="5" fill="#6d4c41"/>

    <!-- Row 14 y=70 — trunk base broad with dark edges -->
    <rect x="20" y="70" width="5" height="5" fill="#6d4c41"/>
    <rect x="25" y="70" width="5" height="5" fill="#4e342e"/>
    <rect x="30" y="70" width="5" height="5" fill="#8d5524"/>
    <rect x="35" y="70" width="5" height="5" fill="#9d6830"/>
    <rect x="40" y="70" width="5" height="5" fill="#9d6830"/>
    <rect x="45" y="70" width="5" height="5" fill="#8d5524"/>
    <rect x="50" y="70" width="5" height="5" fill="#4e342e"/>
    <rect x="55" y="70" width="5" height="5" fill="#6d4c41"/>

    <!-- Row 15 y=75 — root flare -->
    <rect x="20" y="75" width="5" height="5" fill="#6d4c41"/>
    <rect x="25" y="75" width="5" height="5" fill="#4e342e"/>
    <rect x="30" y="75" width="5" height="5" fill="#8d5524"/>
    <rect x="35" y="75" width="5" height="5" fill="#9d6830"/>
    <rect x="40" y="75" width="5" height="5" fill="#9d6830"/>
    <rect x="45" y="75" width="5" height="5" fill="#8d5524"/>
    <rect x="50" y="75" width="5" height="5" fill="#4e342e"/>
    <rect x="55" y="75" width="5" height="5" fill="#6d4c41"/>

  </g><!-- end trunk group -->

</svg>
