<?xml version="1.0" encoding="UTF-8" standalone="no"?> <svg xmlns="http://www.w3.org/2000/svg" xmlns:svg="http://www.w3.org/2000/svg" width="137.88297mm" height="23.463717mm" viewBox="0 0 137.88297 23.463717" version="1.1" id="svg1" xml:space="preserve"><defs id="defs1"></defs><g id="layer2" transform="matrix(0.56608332,0,0,0.56608332,-10.928062,-139.14704)"><g id="circle25"><path style="color:#000000;fill:#febd10;stroke-linecap:square;stroke-linejoin:round;-inkscape-stroke:none" d="M 60.099228,266.53091 A 20.069923,20.069923 0 0 1 40.029305,286.60084 20.069923,20.069923 0 0 1 19.959381,266.53091 20.069923,20.069923 0 0 1 40.029305,246.46099 20.069923,20.069923 0 0 1 60.099228,266.53091 Z" id="path2"></path><path style="color:#000000;fill:#522f91;stroke-linecap:square;stroke-linejoin:round;-inkscape-stroke:none" d="m 40.029297,245.80664 c -11.437835,0 -20.724608,9.28678 -20.72461,20.72461 -3e-6,11.43784 9.286771,20.72461 20.72461,20.72461 11.437838,0 20.724613,-9.28677 20.724609,-20.72461 -10e-7,-11.43783 -9.286775,-20.72461 -20.724609,-20.72461 z m 0,1.30859 c 10.730766,0 19.416014,8.68525 19.416015,19.41602 4e-6,10.73077 -8.685245,19.41602 -19.416015,19.41602 -10.730771,0 -19.416019,-8.68525 -19.416016,-19.41602 2e-6,-10.73077 8.685249,-19.41602 19.416016,-19.41602 z" id="path3"></path></g><path id="path27" style="fill:#522f91;fill-opacity:1;stroke-width:0.42861" d="m 38.683931,286.42274 c -4.763089,-0.38582 -8.995498,-2.31416 -12.347547,-5.62571 -3.390385,-3.34942 -5.408897,-7.62141 -5.902889,-12.49287 -0.08955,-0.88311 -0.07509,-2.96954 0.02683,-3.8732 0.270789,-2.4007 0.84491,-4.46292 1.814967,-6.51931 0.464809,-0.98535 0.754469,-1.50271 1.36814,-2.44371 1.30139,-1.9955 3.090474,-3.8751 5.018726,-5.27261 2.639293,-1.91284 5.680337,-3.10649 9.04488,-3.55023 0.97863,-0.12906 3.612714,-0.12906 4.591346,0 3.824937,0.50447 7.191986,1.96199 10.110314,4.37659 0.746115,0.61732 2.033533,1.9142 2.654984,2.67447 4.075769,4.98629 5.532396,11.56776 3.938211,17.79396 -0.703838,2.74889 -1.949754,5.26908 -3.715228,7.51501 -0.614056,0.78118 -2.067102,2.27788 -2.804275,2.88854 -2.595071,2.14973 -5.612165,3.59104 -8.815485,4.21127 -1.199085,0.23218 -1.952537,0.30393 -3.37113,0.32105 -0.752196,0.009 -1.477536,0.008 -1.611853,-0.003 z m 2.491051,-1.56059 c 1.217174,-0.084 2.493911,-0.29575 3.580252,-0.59375 l 0.40517,-0.11113 0.140381,-0.28274 c 0.203018,-0.40886 0.473538,-1.22672 0.59809,-1.80818 0.09219,-0.43041 0.107932,-0.65602 0.107925,-1.54668 -4e-6,-0.89182 -0.01551,-1.11336 -0.107049,-1.53012 -0.356567,-1.62321 -1.156637,-3.15835 -2.398684,-4.60247 -0.176169,-0.20483 -0.794539,-0.86402 -1.374153,-1.46485 -0.579618,-0.60085 -1.295911,-1.35548 -1.591762,-1.677 l -0.537917,-0.58448 -0.461276,0.50991 c -0.253703,0.28044 -0.957516,1.0239 -1.564032,1.65212 -0.606515,0.62823 -1.284844,1.35382 -1.507399,1.61244 -1.230159,1.42953 -2.063186,3.05547 -2.380375,4.64621 -0.135961,0.68182 -0.12362,2.29917 0.02279,2.98492 0.123968,0.58068 0.394331,1.39857 0.597722,1.80818 l 0.140387,0.28274 0.405276,0.11148 c 1.874666,0.51566 3.986422,0.72716 5.924665,0.5934 z m -7.368085,-1.32586 c -0.885611,-1.11818 -1.548857,-2.50956 -1.816701,-3.81113 -0.120187,-0.58405 -0.145997,-1.67732 -0.05393,-2.2842 0.146422,-0.96516 0.526759,-2.02828 1.039234,-2.90491 0.522639,-0.89401 1.057533,-1.54817 2.531187,-3.0956 1.506965,-1.58243 2.564062,-2.7257 2.631888,-2.84646 0.02811,-0.0501 -0.01551,-0.14504 -0.140118,-0.30537 -0.09949,-0.12801 -0.334826,-0.43944 -0.522962,-0.69208 -0.188133,-0.25262 -0.35867,-0.4593 -0.378968,-0.4593 -0.02032,0 -0.187967,0.17316 -0.372591,0.38482 -0.656648,0.75278 -1.620311,1.79187 -2.7528,2.96831 -1.334913,1.38674 -1.809997,1.9485 -2.371498,2.80427 -0.699724,1.06642 -1.151484,2.11107 -1.399145,3.23543 -0.09915,0.45011 -0.11312,0.64565 -0.112997,1.58125 1.49e-4,1.16318 0.04071,1.45923 0.326563,2.38352 0.162919,0.52678 0.613829,1.49887 0.917386,1.97776 0.196689,0.31029 0.20743,0.3183 0.845201,0.62995 0.654498,0.31982 1.716885,0.76473 1.832556,0.76745 0.03473,7.9e-4 -0.05629,-0.14936 -0.202307,-0.33371 z m 12.75683,0.12991 c 0.28677,-0.11291 0.833967,-0.35678 1.216005,-0.54193 0.693056,-0.33593 0.695049,-0.33738 0.894043,-0.65131 0.303764,-0.47922 0.754644,-1.45121 0.917606,-1.97812 0.285852,-0.92429 0.326416,-1.22034 0.326563,-2.38352 1.24e-4,-0.9356 -0.01386,-1.13114 -0.112997,-1.58125 -0.245078,-1.11263 -0.720952,-2.20876 -1.4179,-3.26604 -0.548739,-0.83244 -1.035017,-1.40507 -2.376629,-2.79862 -2.781209,-2.88888 -4.245443,-4.63026 -5.414307,-6.43911 -1.503581,-2.32682 -1.905767,-3.98653 -1.345198,-5.55127 0.34097,-0.95175 1.021338,-1.84031 2.606681,-3.40433 l 0.478169,-0.47173 -0.231341,0.32277 c -0.748821,1.04474 -1.075213,2.36812 -0.887923,3.6001 0.402181,2.64552 2.351277,5.46384 7.433946,10.74921 0.565416,0.58797 1.194685,1.28131 1.398371,1.54076 0.976737,1.24418 1.593835,2.50009 1.878714,3.82355 0.123603,0.57424 0.128321,2.13145 0.008,2.68252 -0.376494,1.72625 -1.218523,3.24571 -2.622969,4.73323 -0.50265,0.53239 -0.510775,0.54452 -0.273805,0.40903 0.46793,-0.26756 1.761636,-1.16449 2.222408,-1.54082 0.255211,-0.20844 0.722014,-0.61754 1.037338,-0.90906 0.569666,-0.52669 0.574725,-0.53335 0.795184,-1.0451 0.244495,-0.56757 0.414586,-1.12287 0.546747,-1.785 0.13341,-0.66837 0.120058,-2.24565 -0.02477,-2.92456 -0.303965,-1.425 -0.983909,-2.8187 -2.031183,-4.1634 -0.191258,-0.24556 -0.92833,-1.05 -1.637941,-1.78762 -4.544521,-4.72395 -6.627998,-7.66641 -7.062264,-9.97385 -0.158581,-0.84261 -0.05551,-1.73333 0.288027,-2.48926 0.394127,-0.86722 0.957017,-1.57337 2.445069,-3.06738 0.59165,-0.594 1.062728,-1.08002 1.046839,-1.08002 -0.0159,0 -0.325073,0.1762 -0.687081,0.39157 -0.362002,0.21535 -1.326849,0.76623 -2.144105,1.22417 -2.464645,1.38102 -3.533027,2.05997 -4.587522,2.91536 -0.942787,0.76477 -1.607318,1.80161 -1.890059,2.94901 -0.06032,0.24478 -0.08382,0.54359 -0.08341,1.0608 4.25e-4,0.61643 0.01972,0.79821 0.133605,1.26354 0.413597,1.68968 1.486484,3.52491 3.470586,5.93666 1.091134,1.3263 1.892907,2.20724 4.15784,4.56839 1.567259,1.63383 2.385838,2.93281 2.831938,4.49392 0.284679,0.9962 0.344014,2.28056 0.149116,3.22767 -0.267847,1.30157 -0.931093,2.69295 -1.816708,3.81113 -0.146006,0.18435 -0.24088,0.33519 -0.210835,0.33519 0.03006,0 0.289256,-0.0925 0.576021,-0.20528 z m -15.876801,-1.62477 c -1.461823,-1.53824 -2.371461,-3.24086 -2.652849,-4.96547 -0.1098,-0.67297 -0.07665,-1.91234 0.0681,-2.54635 0.290859,-1.27384 0.926961,-2.54945 1.866276,-3.74263 0.172005,-0.21849 0.763878,-0.8665 1.31527,-1.44004 1.652361,-1.7187 2.858005,-3.04142 3.797709,-4.16649 l 0.535294,-0.64091 -0.138589,-0.36588 c -0.159235,-0.42041 -0.311187,-1.01042 -0.362151,-1.40621 l -0.03515,-0.27308 -0.103369,0.14398 c -0.256075,0.35672 -1.27228,1.64241 -1.672001,2.11538 -0.788808,0.93335 -1.931603,2.18305 -3.24706,3.55085 -0.709403,0.73762 -1.446309,1.54206 -1.637563,1.78762 -1.047278,1.3447 -1.727222,2.7384 -2.03119,4.1634 -0.14482,0.67891 -0.158172,2.25619 -0.02478,2.92456 0.132161,0.66213 0.302251,1.21743 0.546747,1.785 0.22046,0.51175 0.225519,0.51841 0.795184,1.0451 0.743027,0.68699 1.364688,1.19099 2.068933,1.6774 0.51742,0.35738 1.359429,0.89241 1.404786,0.89266 0.01024,6e-5 -0.211894,-0.24247 -0.493602,-0.53889 z m -6.630527,-9.0944 c 0.112295,-0.36868 0.280373,-0.86664 0.373497,-1.10654 l 0.169321,-0.43619 -0.345008,-0.49127 c -0.771469,-1.09852 -2.419702,-2.98277 -2.515557,-2.87574 -0.02349,0.0262 0.104573,1.11965 0.193911,1.65569 0.04112,0.24665 0.153271,0.77954 0.249247,1.18417 l 0.174502,0.7357 0.382026,0.54256 c 0.210113,0.2984 0.530286,0.79271 0.711498,1.09848 0.267574,0.45148 0.33632,0.53784 0.365929,0.45973 0.02005,-0.0529 0.128333,-0.39788 0.240634,-0.76659 z m 32.471422,0.13864 c 0.169861,-0.28351 0.461191,-0.73148 0.647399,-0.99549 0.331432,-0.46993 0.342116,-0.49475 0.507667,-1.18017 0.162477,-0.67274 0.375888,-1.95457 0.43797,-2.63068 l 0.02962,-0.32277 -0.624634,0.64553 c -0.699308,0.72271 -1.284308,1.42957 -1.861439,2.24923 l -0.388465,0.55168 0.233564,0.63548 c 0.128456,0.3495 0.30647,0.88946 0.395586,1.19992 0.188069,0.6552 0.130142,0.66942 0.622716,-0.15273 z m -30.180103,-4.9636 c 0.146069,-0.2212 0.404331,-0.5892 0.573917,-0.81778 0.169588,-0.22859 0.308343,-0.42862 0.308343,-0.4445 0,-0.0589 -0.786195,-1.05834 -1.305166,-1.65915 -0.636851,-0.73728 -1.438473,-1.52777 -2.2122,-2.18154 -0.692491,-0.5851 -1.459821,-1.16701 -1.493604,-1.13266 -0.05736,0.0582 -0.374763,1.76993 -0.385293,2.07767 -5.52e-4,0.0163 0.251751,0.23824 0.560691,0.49308 1.110685,0.9162 2.544581,2.48515 3.368325,3.68559 0.145238,0.21165 0.276525,0.38407 0.291742,0.38316 0.01521,-8e-4 0.147176,-0.18266 0.293245,-0.40387 z m 27.761418,0.0178 c 0.945609,-1.37192 2.204601,-2.73359 3.515572,-3.80221 l 0.428848,-0.34957 -0.03065,-0.2255 c -0.05377,-0.39549 -0.320976,-1.76119 -0.357585,-1.8277 -0.07969,-0.14477 -1.764016,1.23217 -2.840636,2.32223 -1.009762,1.02239 -2.235539,2.52512 -2.161114,2.64944 0.01871,0.0311 0.188923,0.26927 0.37824,0.52895 0.189322,0.25966 0.432137,0.6114 0.539593,0.78165 0.107457,0.17025 0.210031,0.30974 0.227945,0.31 0.01789,2.3e-4 0.152819,-0.17404 0.2998,-0.38729 z m -23.728711,-4.40154 c 0.134323,-0.10629 0.261736,-0.20837 0.283138,-0.22681 0.04751,-0.0411 -0.60392,-0.97381 -1.160423,-1.66168 -1.330929,-1.64511 -2.885564,-3.08032 -4.587401,-4.23499 -0.742589,-0.50385 -0.77868,-0.52217 -0.846718,-0.43032 -0.03911,0.0528 -0.244475,0.44649 -0.456421,0.87493 l -0.385355,0.77899 0.621518,0.42269 c 1.988876,1.35268 3.607201,2.96164 4.982268,4.9535 l 0.367192,0.53187 0.468988,-0.40745 c 0.257946,-0.2241 0.578892,-0.49441 0.713214,-0.60073 z m 20.719492,0.38829 c 0.955642,-1.39077 2.221337,-2.75833 3.580471,-3.86863 0.511197,-0.41759 1.78653,-1.33181 1.921849,-1.37768 0.0557,-0.0189 -0.77743,-1.77361 -0.842091,-1.77361 -0.05504,0 -0.739617,0.44471 -1.250715,0.81249 -1.824827,1.31312 -3.881448,3.40775 -5.052302,5.14568 l -0.285285,0.42344 0.581317,0.46964 c 0.319724,0.25828 0.652425,0.54421 0.739338,0.63537 0.183788,0.19278 0.121262,0.24082 0.607418,-0.4667 z"></path><path d="m 40.657866,284.83712 c 0.724703,-0.0242 2.187994,-0.1794 2.187994,-0.1794 l 0.239397,-0.0332 0.08606,-0.18326 c 0.117691,-0.25026 0.246001,-0.94867 0.320731,-1.30174 0.05531,-0.26126 0.06475,-0.39828 0.06475,-0.93903 -2e-6,-0.54149 -0.0089,-0.67596 -0.06426,-0.92902 -0.213934,-0.98553 -0.693948,-1.91756 -1.439134,-2.79438 -0.10571,-0.12438 -0.476696,-0.52457 -0.824447,-0.88939 -0.347757,-0.3648 -0.777511,-0.82296 -0.955005,-1.01814 l -0.322738,-0.35489 -0.276755,0.30962 c -0.152238,0.17035 -0.574478,0.62164 -0.938373,1.00304 -0.36389,0.38145 -0.770862,0.82199 -0.904393,0.97898 -0.738052,0.86797 -1.237843,1.85516 -1.428148,2.82096 -0.08155,0.41396 -0.07418,1.39595 0.01343,1.81225 0.07438,0.3526 0.312771,1.07654 0.434824,1.32523 l 0.08421,0.18086 0.246837,0.0286 c 0,0 2.309952,0.25846 3.474698,0.16186 z" style="fill:#ffd600;fill-opacity:1;stroke-width:0.258687" id="path37-7"></path><path d="m 40.348774,284.89481 c 0.410693,-0.0137 1.239941,-0.10167 1.239941,-0.10167 l 0.135667,-0.0188 0.04878,-0.10383 c 0.0667,-0.14182 0.139411,-0.5376 0.181761,-0.7377 0.03134,-0.14806 0.03669,-0.22571 0.03669,-0.53214 -2e-6,-0.30686 -0.005,-0.38308 -0.03642,-0.52648 -0.121236,-0.55849 -0.393261,-1.08669 -0.815561,-1.58358 -0.05991,-0.0704 -0.270143,-0.29729 -0.467215,-0.50404 -0.197072,-0.20672 -0.440616,-0.46636 -0.541201,-0.57696 l -0.182897,-0.20113 -0.156838,0.17547 c -0.08627,0.0966 -0.325557,0.35229 -0.531777,0.56842 -0.206217,0.21618 -0.43685,0.46582 -0.512522,0.5548 -0.418254,0.49189 -0.701487,1.05132 -0.809334,1.59864 -0.04621,0.2346 -0.04203,0.79108 0.0076,1.02701 0.04214,0.19982 0.177247,0.61006 0.246414,0.751 l 0.04772,0.10249 0.139882,0.0163 c 0,0 1.309055,0.14646 1.969117,0.0917 z" style="fill:#ffef00;fill-opacity:1;stroke-width:0.146598" id="path37"></path></g><g id="layer3" transform="translate(-30.251826,-81.619245)"><g id="text4" style="font-weight:bold;font-size:11.2889px;line-height:1;font-family:'PT Sans Narrow';-inkscape-font-specification:'PT Sans Narrow Bold';letter-spacing:0.264583px;word-spacing:-0.534458px;fill:#522f91;stroke-width:7;stroke-linecap:square;stroke-linejoin:round" aria-label="Greenshire Institute&#10;for Holistic Studies"><path style="font-family:Avenir;-inkscape-font-specification:'Avenir Bold'" d="m 65.925626,91.568947 q -0.778934,0.406401 -1.625601,0.587023 -0.846668,0.180623 -1.727202,0.180623 -0.936979,0 -1.727202,-0.293512 -0.790223,-0.293511 -1.365957,-0.835378 -0.575734,-0.553157 -0.903112,-1.332091 -0.316089,-0.778934 -0.316089,-1.73849 0,-0.959557 0.316089,-1.738491 0.327378,-0.778934 0.903112,-1.320801 0.575734,-0.553157 1.365957,-0.846668 0.790223,-0.293511 1.727202,-0.293511 0.959556,0 1.761068,0.237067 0.812801,0.225778 1.422402,0.790223 l -1.241779,1.354668 q -0.361245,-0.372534 -0.812801,-0.564445 -0.451556,-0.191912 -1.12889,-0.191912 -0.564445,0 -1.02729,0.191912 -0.451556,0.191911 -0.778934,0.541867 -0.327378,0.338667 -0.508001,0.812801 -0.169333,0.474133 -0.169333,1.02729 0,0.564445 0.169333,1.038578 0.180623,0.462845 0.508001,0.812801 0.327378,0.338667 0.778934,0.530579 0.462845,0.191911 1.02729,0.191911 0.575734,0 0.993423,-0.124178 0.417689,-0.135467 0.666045,-0.270934 v -1.298223 h -1.43369 v -1.625602 h 3.127025 z m 1.596672,-4.92196 h 1.693335 v 0.880534 h 0.02258 q 0.270934,-0.508001 0.643467,-0.756356 0.372534,-0.259645 0.936979,-0.259645 0.146756,0 0.293511,0.01129 0.146756,0.01129 0.270934,0.04516 v 1.54658 q -0.180622,-0.05644 -0.361245,-0.07902 -0.169333,-0.03387 -0.361245,-0.03387 -0.485422,0 -0.767645,0.135467 -0.282222,0.135466 -0.440267,0.383822 -0.146756,0.237067 -0.191911,0.575734 -0.04516,0.338667 -0.04516,0.745068 v 2.291646 h -1.693335 z m 9.848837,4.538138 q -0.4064,0.519289 -1.02729,0.801512 -0.620889,0.282222 -1.286934,0.282222 -0.632179,0 -1.196624,-0.2032 -0.553156,-0.2032 -0.970845,-0.575734 -0.406401,-0.383823 -0.643468,-0.914401 -0.237066,-0.530578 -0.237066,-1.185334 0,-0.654757 0.237066,-1.185335 0.237067,-0.530578 0.643468,-0.903112 0.417689,-0.383823 0.970845,-0.587023 0.564445,-0.2032 1.196624,-0.2032 0.587022,0 1.061156,0.2032 0.485423,0.2032 0.812801,0.587023 0.338667,0.372534 0.51929,0.903112 0.180622,0.530578 0.180622,1.185335 v 0.530578 h -3.928537 q 0.1016,0.485423 0.440267,0.778934 0.338667,0.282222 0.835378,0.282222 0.41769,0 0.699912,-0.180622 0.293512,-0.191911 0.508001,-0.485423 z M 75.937445,88.7693 q 0.01129,-0.428978 -0.282223,-0.733779 -0.293511,-0.3048 -0.756356,-0.3048 -0.282222,0 -0.496712,0.09031 -0.214489,0.09031 -0.372533,0.237067 -0.146756,0.135467 -0.237067,0.327378 -0.07902,0.180623 -0.09031,0.383823 z m 8.178096,2.415825 q -0.4064,0.519289 -1.02729,0.801512 -0.620889,0.282222 -1.286935,0.282222 -0.632178,0 -1.196623,-0.2032 -0.553156,-0.2032 -0.970845,-0.575734 -0.406401,-0.383823 -0.643468,-0.914401 -0.237067,-0.530578 -0.237067,-1.185334 0,-0.654757 0.237067,-1.185335 0.237067,-0.530578 0.643468,-0.903112 0.417689,-0.383823 0.970845,-0.587023 0.564445,-0.2032 1.196623,-0.2032 0.587023,0 1.061157,0.2032 0.485423,0.2032 0.812801,0.587023 0.338667,0.372534 0.519289,0.903112 0.180623,0.530578 0.180623,1.185335 v 0.530578 h -3.928538 q 0.1016,0.485423 0.440267,0.778934 0.338667,0.282222 0.835379,0.282222 0.417689,0 0.699912,-0.180622 0.293511,-0.191911 0.508,-0.485423 z M 82.681851,88.7693 q 0.01129,-0.428978 -0.282223,-0.733779 -0.293511,-0.3048 -0.756356,-0.3048 -0.282223,0 -0.496712,0.09031 -0.214489,0.09031 -0.372534,0.237067 -0.146755,0.135467 -0.237066,0.327378 -0.07902,0.180623 -0.09031,0.383823 z m 2.985202,-2.122313 h 1.625601 v 0.745067 h 0.02258 q 0.07902,-0.158044 0.225778,-0.316089 0.146756,-0.158045 0.349956,-0.282223 0.2032,-0.124177 0.462845,-0.2032 0.259645,-0.07902 0.564445,-0.07902 0.643467,0 1.038579,0.2032 0.395111,0.191911 0.6096,0.541867 0.225778,0.349956 0.304801,0.82409 0.07902,0.474134 0.07902,1.02729 v 3.025425 h -1.693335 v -2.686758 q 0,-0.237067 -0.02258,-0.485423 -0.01129,-0.259644 -0.1016,-0.474133 -0.07902,-0.21449 -0.259645,-0.349956 -0.169333,-0.135467 -0.496711,-0.135467 -0.327378,0 -0.530579,0.124178 -0.2032,0.112889 -0.316089,0.316089 -0.1016,0.191911 -0.135467,0.440267 -0.03387,0.248356 -0.03387,0.519289 v 2.731914 h -1.693335 z m 9.848851,1.614313 q -0.372534,-0.462845 -0.982134,-0.462845 -0.214489,0 -0.41769,0.1016 -0.2032,0.1016 -0.2032,0.349956 0,0.2032 0.2032,0.3048 0.214489,0.09031 0.530579,0.169333 0.327378,0.06773 0.688623,0.158045 0.372533,0.07902 0.688623,0.259645 0.327378,0.180622 0.530578,0.496711 0.214489,0.304801 0.214489,0.82409 0,0.530578 -0.237067,0.880534 -0.225778,0.338667 -0.587023,0.553156 -0.361245,0.203201 -0.812801,0.282223 -0.451556,0.09031 -0.891823,0.09031 -0.575734,0 -1.162756,-0.158044 -0.587023,-0.169334 -0.993424,-0.587023 l 1.02729,-1.140179 q 0.237067,0.293511 0.51929,0.451556 0.293511,0.146755 0.677334,0.146755 0.293511,0 0.530578,-0.07902 0.237067,-0.09031 0.237067,-0.316089 0,-0.214489 -0.214489,-0.316089 -0.2032,-0.112889 -0.530579,-0.180623 -0.316089,-0.07902 -0.688622,-0.158044 -0.361245,-0.09031 -0.688623,-0.259645 -0.31609,-0.169333 -0.530579,-0.474134 -0.2032,-0.316089 -0.2032,-0.835378 0,-0.485423 0.191911,-0.835379 0.203201,-0.349956 0.51929,-0.575734 0.327378,-0.225778 0.745067,-0.327378 0.41769,-0.112889 0.846668,-0.112889 0.541867,0 1.095023,0.158045 0.553156,0.158044 0.936979,0.564445 z m 4.080224,-4.662316 v 3.79307 h 0.02258 q 0.05644,-0.158044 0.191911,-0.316089 0.135467,-0.158045 0.327381,-0.282223 0.19191,-0.124177 0.45155,-0.2032 0.25965,-0.07902 0.56445,-0.07902 0.64346,0 1.03858,0.2032 0.39511,0.191911 0.6096,0.541867 0.22577,0.349956 0.3048,0.82409 0.079,0.474134 0.079,1.02729 v 3.025425 h -1.69334 v -2.686758 q 0,-0.237067 -0.0226,-0.485423 -0.0113,-0.259644 -0.1016,-0.474133 -0.079,-0.21449 -0.25965,-0.349956 -0.16933,-0.135467 -0.49671,-0.135467 -0.32738,0 -0.53058,0.124178 -0.203197,0.112889 -0.316086,0.316089 -0.1016,0.191911 -0.135467,0.440267 -0.03387,0.248356 -0.03387,0.519289 v 2.731914 h -1.693335 v -8.534408 z m 5.073642,3.048003 h 1.69334 v 5.486405 h -1.69334 z m -0.13546,-1.727202 q 0,-0.4064 0.28222,-0.688623 0.29351,-0.293511 0.69991,-0.293511 0.4064,0 0.68863,0.293511 0.29351,0.282223 0.29351,0.688623 0,0.4064 -0.29351,0.699912 -0.28223,0.282222 -0.68863,0.282222 -0.4064,0 -0.69991,-0.282222 -0.28222,-0.293512 -0.28222,-0.699912 z m 3.31257,1.727202 h 1.69333 v 0.880534 h 0.0226 q 0.27093,-0.508001 0.64347,-0.756356 0.37253,-0.259645 0.93698,-0.259645 0.14675,0 0.29351,0.01129 0.14675,0.01129 0.27093,0.04516 v 1.54658 q -0.18062,-0.05644 -0.36124,-0.07902 -0.16934,-0.03387 -0.36125,-0.03387 -0.48542,0 -0.76764,0.135467 -0.28223,0.135466 -0.44027,0.383822 -0.14676,0.237067 -0.19191,0.575734 -0.0452,0.338667 -0.0452,0.745068 v 2.291646 h -1.69333 z m 9.84883,4.538138 q -0.4064,0.519289 -1.02729,0.801512 -0.62089,0.282222 -1.28693,0.282222 -0.63218,0 -1.19663,-0.2032 -0.55315,-0.2032 -0.97084,-0.575734 -0.4064,-0.383823 -0.64347,-0.914401 -0.23707,-0.530578 -0.23707,-1.185334 0,-0.654757 0.23707,-1.185335 0.23707,-0.530578 0.64347,-0.903112 0.41769,-0.383823 0.97084,-0.587023 0.56445,-0.2032 1.19663,-0.2032 0.58702,0 1.06115,0.2032 0.48543,0.2032 0.81281,0.587023 0.33866,0.372534 0.51928,0.903112 0.18063,0.530578 0.18063,1.185335 v 0.530578 h -3.92854 q 0.1016,0.485423 0.44027,0.778934 0.33866,0.282222 0.83538,0.282222 0.41769,0 0.69991,-0.180622 0.29351,-0.191911 0.508,-0.485423 z M 116.26202,88.7693 q 0.0113,-0.428978 -0.28222,-0.733779 -0.29351,-0.3048 -0.75636,-0.3048 -0.28222,0 -0.49671,0.09031 -0.21449,0.09031 -0.37253,0.237067 -0.14676,0.135467 -0.23707,0.327378 -0.079,0.180623 -0.0903,0.383823 z m 6.24875,-4.628449 h 1.76107 v 7.992541 h -1.76107 z m 3.41418,2.506136 h 1.6256 v 0.745067 h 0.0226 q 0.079,-0.158044 0.22578,-0.316089 0.14675,-0.158045 0.34995,-0.282223 0.2032,-0.124177 0.46285,-0.2032 0.25964,-0.07902 0.56444,-0.07902 0.64347,0 1.03858,0.2032 0.39511,0.191911 0.6096,0.541867 0.22578,0.349956 0.3048,0.82409 0.079,0.474134 0.079,1.02729 v 3.025425 h -1.69333 v -2.686758 q 0,-0.237067 -0.0226,-0.485423 -0.0113,-0.259644 -0.1016,-0.474133 -0.079,-0.21449 -0.25964,-0.349956 -0.16934,-0.135467 -0.49671,-0.135467 -0.32738,0 -0.53058,0.124178 -0.2032,0.112889 -0.31609,0.316089 -0.1016,0.191911 -0.13547,0.440267 -0.0339,0.248356 -0.0339,0.519289 v 2.731914 h -1.69333 z m 9.84885,1.614313 q -0.37253,-0.462845 -0.98213,-0.462845 -0.21449,0 -0.41769,0.1016 -0.2032,0.1016 -0.2032,0.349956 0,0.2032 0.2032,0.3048 0.21449,0.09031 0.53058,0.169333 0.32738,0.06773 0.68862,0.158045 0.37254,0.07902 0.68862,0.259645 0.32738,0.180622 0.53058,0.496711 0.21449,0.304801 0.21449,0.82409 0,0.530578 -0.23706,0.880534 -0.22578,0.338667 -0.58703,0.553156 -0.36124,0.203201 -0.8128,0.282223 -0.45155,0.09031 -0.89182,0.09031 -0.57574,0 -1.16276,-0.158044 -0.58702,-0.169334 -0.99342,-0.587023 l 1.02729,-1.140179 q 0.23707,0.293511 0.51929,0.451556 0.29351,0.146755 0.67733,0.146755 0.29351,0 0.53058,-0.07902 0.23707,-0.09031 0.23707,-0.316089 0,-0.214489 -0.21449,-0.316089 -0.2032,-0.112889 -0.53058,-0.180623 -0.31609,-0.07902 -0.68862,-0.158044 -0.36125,-0.09031 -0.68863,-0.259645 -0.31609,-0.169333 -0.53057,-0.474134 -0.2032,-0.316089 -0.2032,-0.835378 0,-0.485423 0.19191,-0.835379 0.2032,-0.349956 0.51929,-0.575734 0.32737,-0.225778 0.74506,-0.327378 0.41769,-0.112889 0.84667,-0.112889 0.54187,0 1.09502,0.158045 0.55316,0.158044 0.93698,0.564445 z m 6.12352,-0.259645 h -1.49014 v 1.828802 q 0,0.225778 0.0226,0.417689 0.0226,0.180622 0.1016,0.316089 0.079,0.135467 0.23707,0.214489 0.16933,0.06773 0.44026,0.06773 0.13547,0 0.34996,-0.02258 0.22578,-0.03387 0.33867,-0.135467 v 1.411113 q -0.28223,0.1016 -0.58703,0.135466 -0.3048,0.03387 -0.59831,0.03387 -0.42898,0 -0.79022,-0.09031 -0.36125,-0.09031 -0.63218,-0.282223 -0.27093,-0.2032 -0.42898,-0.519289 -0.14675,-0.316089 -0.14675,-0.767645 v -2.607736 h -1.08374 v -1.354668 h 1.08374 v -1.625602 h 1.69333 v 1.625602 h 1.49014 z m 1.14511,-1.354668 h 1.69333 v 5.486405 h -1.69333 z m -0.13547,-1.727202 q 0,-0.4064 0.28222,-0.688623 0.29352,-0.293511 0.69992,-0.293511 0.4064,0 0.68862,0.293511 0.29351,0.282223 0.29351,0.688623 0,0.4064 -0.29351,0.699912 -0.28222,0.282222 -0.68862,0.282222 -0.4064,0 -0.69992,-0.282222 -0.28222,-0.293512 -0.28222,-0.699912 z m 7.04919,3.08187 h -1.49013 v 1.828802 q 0,0.225778 0.0226,0.417689 0.0226,0.180622 0.1016,0.316089 0.079,0.135467 0.23706,0.214489 0.16934,0.06773 0.44027,0.06773 0.13547,0 0.34996,-0.02258 0.22577,-0.03387 0.33866,-0.135467 v 1.411113 q -0.28222,0.1016 -0.58702,0.135466 -0.3048,0.03387 -0.59831,0.03387 -0.42898,0 -0.79022,-0.09031 -0.36125,-0.09031 -0.63218,-0.282223 -0.27094,-0.2032 -0.42898,-0.519289 -0.14676,-0.316089 -0.14676,-0.767645 v -2.607736 h -1.08373 v -1.354668 h 1.08373 v -1.625602 h 1.69334 v 1.625602 h 1.49013 z m 6.40574,4.131737 h -1.6256 v -0.745067 h -0.0226 q -0.0903,0.158045 -0.23706,0.316089 -0.13547,0.158045 -0.33867,0.282223 -0.2032,0.124178 -0.46284,0.2032 -0.25965,0.07902 -0.56445,0.07902 -0.64347,0 -1.04987,-0.191911 -0.39511,-0.2032 -0.62089,-0.553156 -0.21449,-0.349956 -0.29351,-0.82409 -0.0677,-0.474134 -0.0677,-1.02729 v -3.025425 h 1.69333 v 2.686758 q 0,0.237067 0.0113,0.496712 0.0226,0.248355 0.1016,0.462845 0.0903,0.214489 0.25965,0.349955 0.18062,0.135467 0.508,0.135467 0.32738,0 0.53058,-0.112889 0.2032,-0.124178 0.3048,-0.316089 0.11289,-0.2032 0.14675,-0.451556 0.0339,-0.248356 0.0339,-0.519289 v -2.731914 h 1.69333 z m 5.19783,-4.131737 h -1.49013 v 1.828802 q 0,0.225778 0.0226,0.417689 0.0226,0.180622 0.1016,0.316089 0.079,0.135467 0.23706,0.214489 0.16934,0.06773 0.44027,0.06773 0.13547,0 0.34996,-0.02258 0.22577,-0.03387 0.33866,-0.135467 v 1.411113 q -0.28222,0.1016 -0.58702,0.135466 -0.3048,0.03387 -0.59831,0.03387 -0.42898,0 -0.79022,-0.09031 -0.36125,-0.09031 -0.63218,-0.282223 -0.27094,-0.2032 -0.42898,-0.519289 -0.14676,-0.316089 -0.14676,-0.767645 v -2.607736 h -1.08373 v -1.354668 h 1.08373 v -1.625602 h 1.69334 v 1.625602 h 1.49013 z m 6.31543,3.18347 q -0.4064,0.519289 -1.02729,0.801512 -0.62089,0.282222 -1.28693,0.282222 -0.63218,0 -1.19663,-0.2032 -0.55315,-0.2032 -0.97084,-0.575734 -0.4064,-0.383823 -0.64347,-0.914401 -0.23707,-0.530578 -0.23707,-1.185334 0,-0.654757 0.23707,-1.185335 0.23707,-0.530578 0.64347,-0.903112 0.41769,-0.383823 0.97084,-0.587023 0.56445,-0.2032 1.19663,-0.2032 0.58702,0 1.06115,0.2032 0.48543,0.2032 0.81281,0.587023 0.33866,0.372534 0.51928,0.903112 0.18063,0.530578 0.18063,1.185335 v 0.530578 h -3.92854 q 0.1016,0.485423 0.44027,0.778934 0.33866,0.282222 0.83538,0.282222 0.41768,0 0.69991,-0.180622 0.29351,-0.191911 0.508,-0.485423 z M 166.44146,88.7693 q 0.0113,-0.428978 -0.28222,-0.733779 -0.29351,-0.3048 -0.75636,-0.3048 -0.28222,0 -0.49671,0.09031 -0.21449,0.09031 -0.37253,0.237067 -0.14676,0.135467 -0.23707,0.327378 -0.079,0.180623 -0.0903,0.383823 z" id="path41"></path><path style="font-family:Avenir;-inkscape-font-specification:'Avenir Bold'" d="M 59.061975,99.493028 H 57.944374 V 98.13836 h 1.117601 v -0.970845 q 0,-0.451556 0.07902,-0.846668 0.07902,-0.4064 0.3048,-0.711201 0.225778,-0.3048 0.643468,-0.474133 0.428978,-0.180623 1.117601,-0.180623 0.259645,0 0.508,0.02258 0.248356,0.02258 0.485423,0.07902 l -0.07902,1.433691 q -0.146756,-0.05645 -0.270934,-0.07902 -0.124178,-0.03387 -0.282222,-0.03387 -0.406401,0 -0.609601,0.180622 -0.2032,0.169334 -0.2032,0.711201 v 0.869245 h 1.253068 v 1.354668 H 60.75531 v 4.131743 h -1.693335 z m 3.651241,1.388532 q 0,-0.65475 0.237067,-1.185332 0.237067,-0.530578 0.643467,-0.903112 0.41769,-0.383822 0.970846,-0.587023 0.564445,-0.2032 1.196623,-0.2032 0.632179,0 1.185335,0.2032 0.564445,0.203201 0.970845,0.587023 0.41769,0.372534 0.654757,0.903112 0.237066,0.530582 0.237066,1.185332 0,0.65476 -0.237066,1.18534 -0.237067,0.53058 -0.654757,0.9144 -0.4064,0.37253 -0.970845,0.57573 -0.553156,0.2032 -1.185335,0.2032 -0.632178,0 -1.196623,-0.2032 -0.553156,-0.2032 -0.970846,-0.57573 -0.4064,-0.38382 -0.643467,-0.9144 -0.237067,-0.53058 -0.237067,-1.18534 z m 1.693335,0 q 0,0.62089 0.349956,1.00472 0.361245,0.38382 1.004712,0.38382 0.643468,0 0.993424,-0.38382 0.361244,-0.38383 0.361244,-1.00472 0,-0.62089 -0.361244,-1.004709 -0.349956,-0.383823 -0.993424,-0.383823 -0.643467,0 -1.004712,0.383823 -0.349956,0.383819 -0.349956,1.004709 z m 5.660663,-2.7432 h 1.693335 v 0.880534 h 0.02258 q 0.270934,-0.508 0.643467,-0.756356 0.372534,-0.259645 0.936979,-0.259645 0.146756,0 0.293512,0.01129 0.146755,0.01129 0.270933,0.04516 v 1.546579 q -0.180622,-0.05644 -0.361245,-0.07902 -0.169333,-0.03387 -0.361244,-0.03387 -0.485423,0 -0.767646,0.135467 -0.282222,0.135467 -0.440267,0.383821 -0.146755,0.23706 -0.191911,0.57573 -0.04516,0.33867 -0.04516,0.74507 v 2.29165 h -1.693335 z m 8.145283,-2.506136 h 1.761069 v 2.98027 h 3.420536 v -2.98027 h 1.761069 v 7.992546 h -1.761069 v -3.45441 h -3.420536 v 3.45441 h -1.761069 z m 8.415158,5.249336 q 0,-0.65475 0.237067,-1.185332 0.237067,-0.530578 0.643468,-0.903112 0.417689,-0.383822 0.970845,-0.587023 0.564445,-0.2032 1.196624,-0.2032 0.632178,0 1.185334,0.2032 0.564445,0.203201 0.970846,0.587023 0.417689,0.372534 0.654756,0.903112 0.237067,0.530582 0.237067,1.185332 0,0.65476 -0.237067,1.18534 -0.237067,0.53058 -0.654756,0.9144 -0.406401,0.37253 -0.970846,0.57573 -0.553156,0.2032 -1.185334,0.2032 -0.632179,0 -1.196624,-0.2032 -0.553156,-0.2032 -0.970845,-0.57573 -0.406401,-0.38382 -0.643468,-0.9144 -0.237067,-0.53058 -0.237067,-1.18534 z m 1.693336,0 q 0,0.62089 0.349955,1.00472 0.361245,0.38382 1.004713,0.38382 0.643467,0 0.993423,-0.38382 0.361245,-0.38383 0.361245,-1.00472 0,-0.62089 -0.361245,-1.004709 -0.349956,-0.383823 -0.993423,-0.383823 -0.643468,0 -1.004713,0.383823 -0.349955,0.383819 -0.349955,1.004709 z m 5.683241,-5.791203 h 1.693335 v 8.534413 h -1.693335 z m 3.199677,3.048003 h 1.693335 v 5.48641 h -1.693335 z m -0.135467,-1.727202 q 0,-0.4064 0.282222,-0.688623 0.293512,-0.293511 0.699912,-0.293511 0.406401,0 0.688623,0.293511 0.293512,0.282223 0.293512,0.688623 0,0.406401 -0.293512,0.699912 -0.282222,0.282223 -0.688623,0.282223 -0.4064,0 -0.699912,-0.282223 -0.282222,-0.293511 -0.282222,-0.699912 z m 6.417018,3.341515 q -0.37254,-0.462845 -0.98214,-0.462845 -0.21449,0 -0.41769,0.1016 -0.2032,0.1016 -0.2032,0.349956 0,0.2032 0.2032,0.304796 0.21449,0.0903 0.53058,0.16934 0.32738,0.0677 0.68862,0.15804 0.37254,0.079 0.68863,0.25965 0.32737,0.18062 0.53057,0.49671 0.21449,0.3048 0.21449,0.82409 0,0.53058 -0.23706,0.88053 -0.22578,0.33867 -0.58703,0.55316 -0.36124,0.2032 -0.8128,0.28222 -0.45155,0.0903 -0.89182,0.0903 -0.57573,0 -1.16276,-0.15804 -0.58702,-0.16934 -0.99342,-0.58702 l 1.02729,-1.14018 q 0.23707,0.29351 0.51929,0.45155 0.29351,0.14676 0.67733,0.14676 0.29351,0 0.53058,-0.079 0.23707,-0.0903 0.23707,-0.31609 0,-0.21449 -0.21449,-0.31609 -0.2032,-0.11289 -0.53058,-0.18063 -0.31609,-0.079 -0.68862,-0.15804 -0.36125,-0.0903 -0.68863,-0.25964 -0.31608,-0.16934 -0.53057,-0.47414 -0.2032,-0.31609 -0.2032,-0.835377 0,-0.485423 0.19191,-0.835379 0.2032,-0.349956 0.51929,-0.575734 0.32738,-0.225778 0.74506,-0.327378 0.41769,-0.112889 0.84667,-0.112889 0.54187,0 1.09503,0.158045 0.55315,0.158044 0.93697,0.564445 z m 6.12351,-0.259645 h -1.49013 v 1.828802 q 0,0.22578 0.0226,0.41769 0.0226,0.18062 0.1016,0.31609 0.079,0.13547 0.23707,0.21449 0.16933,0.0677 0.44027,0.0677 0.13546,0 0.34995,-0.0226 0.22578,-0.0339 0.33867,-0.13546 v 1.41111 q -0.28222,0.1016 -0.58702,0.13547 -0.3048,0.0339 -0.59831,0.0339 -0.42898,0 -0.79023,-0.0903 -0.36124,-0.0903 -0.63218,-0.28222 -0.27093,-0.2032 -0.42897,-0.51929 -0.14676,-0.31609 -0.14676,-0.76765 V 99.493028 H 105.3418 V 98.13836 h 1.08373 v -1.625602 h 1.69334 v 1.625602 h 1.49013 z m 1.14511,-1.354668 h 1.69334 v 5.48641 h -1.69334 z m -0.13546,-1.727202 q 0,-0.4064 0.28222,-0.688623 0.29351,-0.293511 0.69991,-0.293511 0.4064,0 0.68862,0.293511 0.29352,0.282223 0.29352,0.688623 0,0.406401 -0.29352,0.699912 -0.28222,0.282223 -0.68862,0.282223 -0.4064,0 -0.69991,-0.282223 -0.28222,-0.293511 -0.28222,-0.699912 z m 7.02661,3.499559 q -0.12418,-0.180622 -0.34996,-0.293511 -0.22577,-0.124178 -0.48542,-0.124178 -0.64347,0 -1.00471,0.383823 -0.34996,0.383819 -0.34996,1.004709 0,0.62089 0.34996,1.00472 0.36124,0.38382 1.00471,0.38382 0.28222,0 0.48542,-0.12418 0.2032,-0.12418 0.34996,-0.29351 l 1.1176,1.17404 q -0.39511,0.4064 -0.93698,0.57574 -0.53058,0.15804 -1.016,0.15804 -0.63218,0 -1.19662,-0.2032 -0.55316,-0.2032 -0.97085,-0.57573 -0.4064,-0.38382 -0.64346,-0.9144 -0.23707,-0.53058 -0.23707,-1.18534 0,-0.65475 0.23707,-1.185332 0.23706,-0.530578 0.64346,-0.903112 0.41769,-0.383822 0.97085,-0.587023 0.56444,-0.2032 1.19662,-0.2032 0.48542,0 1.016,0.169334 0.54187,0.158044 0.93698,0.564445 z m 9.22901,-2.325513 q -0.21449,-0.270934 -0.58703,-0.395112 -0.36124,-0.135466 -0.68862,-0.135466 -0.19191,0 -0.39511,0.04515 -0.2032,0.04516 -0.38382,0.146756 -0.18063,0.09031 -0.29351,0.248356 -0.11289,0.158044 -0.11289,0.383822 0,0.361245 0.27093,0.553156 0.27093,0.191912 0.67733,0.327379 0.41769,0.135466 0.89183,0.270933 0.47413,0.135467 0.88053,0.383823 0.41769,0.248356 0.68862,0.666039 0.27094,0.41769 0.27094,1.1176 0,0.66605 -0.24836,1.16276 -0.24835,0.49671 -0.67733,0.82409 -0.41769,0.32738 -0.98214,0.48542 -0.55315,0.15805 -1.17404,0.15805 -0.77894,0 -1.44498,-0.23707 -0.66605,-0.23707 -1.24178,-0.76765 l 1.25307,-1.37724 q 0.27093,0.36124 0.67733,0.56444 0.41769,0.19191 0.85796,0.19191 0.21449,0 0.42898,-0.0451 0.22577,-0.0565 0.39511,-0.15805 0.18062,-0.1016 0.28222,-0.25964 0.11289,-0.15805 0.11289,-0.37253 0,-0.36125 -0.28222,-0.56445 -0.27094,-0.21449 -0.68863,-0.36124 -0.41768,-0.14676 -0.90311,-0.29352 -0.48542,-0.14675 -0.90311,-0.395102 -0.41769,-0.248356 -0.69991,-0.654756 -0.27094,-0.406401 -0.27094,-1.072446 0,-0.643467 0.24836,-1.12889 0.25965,-0.485423 0.67733,-0.812801 0.42898,-0.327378 0.98214,-0.485423 0.55316,-0.169333 1.14018,-0.169333 0.67733,0 1.30951,0.191911 0.63218,0.191912 1.14018,0.643468 z m 6.31543,1.907824 h -1.49014 v 1.828802 q 0,0.22578 0.0226,0.41769 0.0226,0.18062 0.1016,0.31609 0.079,0.13547 0.23707,0.21449 0.16933,0.0677 0.44026,0.0677 0.13547,0 0.34996,-0.0226 0.22578,-0.0339 0.33867,-0.13546 v 1.41111 q -0.28223,0.1016 -0.58703,0.13547 -0.3048,0.0339 -0.59831,0.0339 -0.42898,0 -0.79022,-0.0903 -0.36125,-0.0903 -0.63218,-0.28222 -0.27093,-0.2032 -0.42898,-0.51929 -0.14675,-0.31609 -0.14675,-0.76765 v -2.607732 h -1.08374 V 98.13836 h 1.08374 v -1.625602 h 1.69333 v 1.625602 h 1.49014 z m 6.40574,4.131742 h -1.6256 v -0.74507 h -0.0226 q -0.0903,0.15804 -0.23707,0.31609 -0.13547,0.15804 -0.33867,0.28222 -0.2032,0.12418 -0.46284,0.2032 -0.25965,0.079 -0.56445,0.079 -0.64346,0 -1.04986,-0.19191 -0.39512,-0.2032 -0.62089,-0.55315 -0.21449,-0.34996 -0.29351,-0.82409 -0.0677,-0.47414 -0.0677,-1.02729 v -3.02543 h 1.69334 v 2.68676 q 0,0.23707 0.0113,0.49671 0.0226,0.24836 0.1016,0.46284 0.0903,0.21449 0.25964,0.34996 0.18062,0.13547 0.508,0.13547 0.32738,0 0.53058,-0.11289 0.2032,-0.12418 0.3048,-0.31609 0.11289,-0.2032 0.14676,-0.45156 0.0339,-0.24835 0.0339,-0.51929 v -2.73191 h 1.69334 z m 7.21853,0 h -1.55787 v -0.72249 h -0.0226 q -0.1016,0.14675 -0.27093,0.3048 -0.15804,0.14675 -0.38382,0.27093 -0.21449,0.12418 -0.48542,0.2032 -0.25965,0.079 -0.54187,0.079 -0.6096,0 -1.10631,-0.2032 -0.49672,-0.21449 -0.85796,-0.58702 -0.34996,-0.38382 -0.54187,-0.90311 -0.19191,-0.51929 -0.19191,-1.14018 0,-0.57574 0.16934,-1.095025 0.18062,-0.530578 0.49671,-0.936979 0.32737,-0.4064 0.79022,-0.643467 0.46284,-0.248356 1.04987,-0.248356 0.53058,0 0.98213,0.169334 0.46285,0.158044 0.75636,0.553156 h 0.0226 v -3.635026 h 1.69333 z m -1.55787,-2.74321 q 0,-0.62089 -0.36124,-1.004709 -0.34996,-0.383823 -0.99343,-0.383823 -0.64346,0 -1.00471,0.383823 -0.34995,0.383819 -0.34995,1.004709 0,0.62089 0.34995,1.00472 0.36125,0.38382 1.00471,0.38382 0.64347,0 0.99343,-0.38382 0.36124,-0.38383 0.36124,-1.00472 z m 3.1997,-2.7432 h 1.69333 v 5.48641 h -1.69333 z m -0.13547,-1.727202 q 0,-0.4064 0.28222,-0.688623 0.29351,-0.293511 0.69991,-0.293511 0.4064,0 0.68863,0.293511 0.29351,0.282223 0.29351,0.688623 0,0.406401 -0.29351,0.699912 -0.28223,0.282223 -0.68863,0.282223 -0.4064,0 -0.69991,-0.282223 -0.28222,-0.293511 -0.28222,-0.699912 z m 8.50546,6.265342 q -0.4064,0.51929 -1.02729,0.80151 -0.62089,0.28222 -1.28694,0.28222 -0.63217,0 -1.19662,-0.2032 -0.55315,-0.2032 -0.97084,-0.57573 -0.4064,-0.38382 -0.64347,-0.9144 -0.23707,-0.53058 -0.23707,-1.18534 0,-0.65475 0.23707,-1.185332 0.23707,-0.530578 0.64347,-0.903112 0.41769,-0.383822 0.97084,-0.587023 0.56445,-0.2032 1.19662,-0.2032 0.58703,0 1.06116,0.2032 0.48542,0.203201 0.8128,0.587023 0.33867,0.372534 0.51929,0.903112 0.18062,0.530582 0.18062,1.185332 v 0.53058 h -3.92853 q 0.1016,0.48542 0.44026,0.77894 0.33867,0.28222 0.83538,0.28222 0.41769,0 0.69991,-0.18062 0.29352,-0.19192 0.508,-0.48543 z m -1.43369,-2.41583 q 0.0113,-0.428975 -0.28222,-0.733775 -0.29351,-0.3048 -0.75636,-0.3048 -0.28222,0 -0.49671,0.09031 -0.21449,0.09031 -0.37254,0.237067 -0.14675,0.135466 -0.23706,0.327378 -0.079,0.18062 -0.0903,0.38382 z m 6.08964,-0.507997 q -0.37253,-0.462845 -0.98213,-0.462845 -0.21449,0 -0.41769,0.1016 -0.2032,0.1016 -0.2032,0.349956 0,0.2032 0.2032,0.304796 0.21449,0.0903 0.53058,0.16934 0.32738,0.0677 0.68862,0.15804 0.37253,0.079 0.68862,0.25965 0.32738,0.18062 0.53058,0.49671 0.21449,0.3048 0.21449,0.82409 0,0.53058 -0.23707,0.88053 -0.22577,0.33867 -0.58702,0.55316 -0.36124,0.2032 -0.8128,0.28222 -0.45156,0.0903 -0.89182,0.0903 -0.57574,0 -1.16276,-0.15804 -0.58702,-0.16934 -0.99342,-0.58702 l 1.02729,-1.14018 q 0.23706,0.29351 0.51929,0.45155 0.29351,0.14676 0.67733,0.14676 0.29351,0 0.53058,-0.079 0.23707,-0.0903 0.23707,-0.31609 0,-0.21449 -0.21449,-0.31609 -0.2032,-0.11289 -0.53058,-0.18063 -0.31609,-0.079 -0.68862,-0.15804 -0.36125,-0.0903 -0.68863,-0.25964 -0.31609,-0.16934 -0.53058,-0.47414 -0.2032,-0.31609 -0.2032,-0.835377 0,-0.485423 0.19192,-0.835379 0.2032,-0.349956 0.51928,-0.575734 0.32738,-0.225778 0.74507,-0.327378 0.41769,-0.112889 0.84667,-0.112889 0.54187,0 1.09502,0.158045 0.55316,0.158044 0.93698,0.564445 z" id="path42"></path></g></g></svg> 